<svg xmlns="http://www.w3.org/2000/svg" viewBox="0 0 24 24"><defs><style>.babaebe7-b33f-486d-b15b-1a30832555dc{fill:#fff}</style></defs><g id="46fb97a3-63b9-499d-ad5a-7d410e95ac90" data-name="Icons"><path class="babaebe7-b33f-486d-b15b-1a30832555dc" d="M15.27 10.13H7.92a.5.5 0 0 1 0-1h7.35a.5.5 0 0 1 0 1zM15.27 14.32H7.92a.5.5 0 0 1 0-1h7.35a.5.5 0 0 1 0 1z"/><path class="babaebe7-b33f-486d-b15b-1a30832555dc" d="M22.43 23H12.7a11.64 11.64 0 0 1-8.14-2.9 11.14 11.14 0 0 1-1-15.41 10.51 10.51 0 0 1 15.08-1.05 11.15 11.15 0 0 1 1.29 15.1l2.88 3.42a.5.5 0 0 1-.38.82zm-9.62-1h8.54l-2.45-2.93a.5.5 0 0 1 0-.65 10.14 10.14 0 0 0-.93-14 9.51 9.51 0 0 0-13.66 1 10.14 10.14 0 0 0 .93 14A10.86 10.86 0 0 0 12.7 22z"/></g></svg>