<?xml version="1.0" encoding="UTF-8"?>
<svg width="78px" height="18px" viewBox="0 0 78 18" version="1.1" xmlns="http://www.w3.org/2000/svg" xmlns:xlink="http://www.w3.org/1999/xlink">
    <!-- Generator: Sketch 44.1 (41455) - http://www.bohemiancoding.com/sketch -->
    <title>Canada Logo</title>
    <desc>Created with Sketch.</desc>
    <defs></defs>
    <g id="Final" stroke="none" stroke-width="1" fill="none" fill-rule="evenodd">
        <g id="footer_desktop_Grid" transform="translate(-1466.000000, -401.000000)" fill="#FFFFFF">
            <g id="Canada-Logo" transform="translate(1466.000000, 401.000000)">
                <path d="M15.1944886,0.350571429 L15.3491591,5.91471429 L15.0535568,5.91471429 C14.9853068,5.74842857 14.912625,5.56542857 14.8363977,5.36571429 C14.3843523,4.14385714 14.0085341,3.31585714 13.7107159,2.88385714 C12.5850341,1.22871429 11.1659659,0.400714286 9.45306818,0.400714286 C7.5855,0.400714286 6.05563636,1.27328571 4.86259091,3.01757143 C3.72893182,4.66242857 3.16165909,6.62185714 3.16165909,8.89457143 C3.16165909,11.2512857 3.68594318,13.1442857 4.73451136,14.5744286 C5.91957955,16.1862857 7.61120455,16.992 9.81115909,16.992 C10.8681477,16.992 11.7952841,16.8055714 12.592125,16.4331429 C13.3889659,16.0602857 14.0014432,15.5245714 14.4273409,14.8272857 C14.8195568,14.196 15.1093977,13.3808571 15.2973068,12.3797143 L15.5929091,12.4298571 C15.361125,14.2268571 14.6892614,15.57 13.5764318,16.4597143 C12.4627159,17.3494286 10.895625,17.7942857 8.87560227,17.7942857 C6.084,17.7942857 3.88360227,16.971 2.27307955,15.3248571 C0.756954545,13.7867143 0,11.751 0,9.21985714 C0,7.863 0.230454545,6.58971429 0.693136364,5.39871429 C1.15581818,4.20728571 1.80685227,3.21814286 2.64579545,2.43171429 C3.48473864,1.63757143 4.55457955,1.02171429 5.85620455,0.583285714 C6.99518182,0.195 8.13859091,0 9.28598864,0 C10.1422159,0 11.0201591,0.126857143 11.919375,0.378857143 C12.1329886,0.436285714 12.6936136,0.611571429 13.60125,0.904285714 C13.8073295,0.970285714 13.9908068,1.00242857 14.1538977,1.00242857 C14.4534886,1.00242857 14.6972386,0.785571429 14.8860341,0.350571429 L15.1944886,0.350571429" id="Fill-2"></path>
                <path d="M27.7095,16.1862857 L27.9284318,16.3105714 C27.6164318,17.166 26.9068977,17.5937143 25.8007159,17.5937143 C25.1000455,17.5937143 24.5420795,17.4184286 24.1272614,17.0674286 C23.902125,16.8878571 23.668125,16.5942857 23.4270341,16.1862857 C22.9541591,16.5865714 22.5934091,16.8677143 22.3447841,17.0305714 C21.7438295,17.4055714 21.0223295,17.5937143 20.1816136,17.5937143 C19.2881591,17.5937143 18.5586818,17.3884286 17.9914091,16.9765714 C17.398875,16.5488571 17.1032727,15.948 17.1032727,15.1744286 C17.1032727,14.418 17.3833636,13.8012857 17.9439886,13.3238571 C18.3916023,12.9454286 19.124625,12.633 20.1417273,12.3852857 C21.2709545,12.1144286 22.0646932,11.8504286 22.5216136,11.595 C22.8836932,11.3978571 23.1287727,11.151 23.2581818,10.8548571 C23.3703068,10.5994286 23.4270341,10.2415714 23.4270341,9.78128571 C23.4270341,8.91728571 23.2763523,8.25471429 22.9767614,7.794 C22.6155682,7.24285714 22.0753295,6.96728571 21.3542727,6.96728571 C20.8822841,6.96728571 20.4918409,7.10742857 20.1825,7.38685714 C20.0189659,7.539 19.7831932,7.94614286 19.4747386,8.60957143 C19.3027841,8.98542857 18.9894545,9.17271429 18.5351932,9.17271429 C18.1917273,9.17271429 17.925375,9.05528571 17.7365795,8.82042857 C17.5907727,8.64171429 17.5180909,8.439 17.5180909,8.21185714 C17.5180909,7.85442857 17.7286023,7.55442857 18.149625,7.311 C18.9141136,6.882 19.9117159,6.66642857 21.1411023,6.66642857 C21.8798864,6.66642857 22.6195568,6.78171429 23.3587841,7.011 C24.2353977,7.28185714 24.8159659,7.65085714 25.1000455,8.11757143 C25.2977045,8.43814286 25.3965341,8.99571429 25.3965341,9.79071429 L25.3965341,14.3952857 C25.3965341,15.15 25.4306591,15.6638571 25.4993523,15.9364286 C25.6451591,16.5064286 25.9957159,16.7914286 26.5532386,16.7914286 C26.9206364,16.7914286 27.2211136,16.6851429 27.4528977,16.4721429 C27.5127273,16.4142857 27.5978182,16.3187143 27.7095,16.1862857 Z M23.4270341,11.2834286 C22.9860682,11.6391429 22.4817273,11.9648571 21.9140114,12.2618571 C21.2350568,12.6171429 20.7905455,12.8734286 20.5791477,13.0298571 C19.7823068,13.6165714 19.3838864,14.3597143 19.3838864,15.2597143 C19.3838864,15.7971429 19.5279205,16.2338571 19.8164318,16.5724286 C20.1377386,16.953 20.5366023,17.1424286 21.0108068,17.1424286 C21.5958068,17.1424286 22.1090114,16.92 22.5499773,16.4751429 C23.1345341,15.891 23.4270341,14.853 23.4270341,13.362 L23.4270341,11.2834286 L23.4270341,11.2834286 Z" id="Fill-3"></path>
                <path d="M31.6095,6.61628571 C31.7229545,7.08942857 31.7805682,7.60414286 31.7805682,8.15914286 C32.8397727,7.17171429 34.1099318,6.67757143 35.5892727,6.67757143 C36.5549659,6.67757143 37.3588977,6.87385714 38.000625,7.26728571 C38.8036705,7.75028571 39.2056364,8.48742857 39.2056364,9.47828571 L39.2056364,13.8124286 C39.2136136,14.7741429 39.2269091,15.3874286 39.2446364,15.6522857 C39.3124432,16.2741429 39.6000682,16.6924286 40.1052955,16.9067143 C40.3450568,17.007 40.6579432,17.0901429 41.0430682,17.1557143 L41.0430682,17.4042857 L35.3344432,17.4042857 L35.3344432,17.1557143 C35.8476477,17.0901429 36.2083977,16.9984286 36.4140341,16.8822857 C36.8674091,16.6007143 37.1240114,16.0868571 37.1847273,15.3411429 C37.2099886,15.1671429 37.2268295,14.6331429 37.2361364,13.7378571 L37.2361364,11.0952857 C37.2361364,9.717 37.1209091,8.79985714 36.8926705,8.34257143 C36.7224886,8.00014286 36.4432841,7.72928571 36.0537273,7.52871429 C35.6632841,7.329 35.2183295,7.22871429 34.7179773,7.22871429 C34.1835,7.22871429 33.6942273,7.34142857 33.2488295,7.56557143 C32.8034318,7.79014286 32.4754773,8.09014286 32.2640795,8.46642857 C32.0096932,8.89928571 31.8656591,9.39342857 31.8315341,9.948 C31.8053864,10.3315714 31.7934205,10.8141429 31.7934205,11.3935714 L31.7934205,13.8372857 C31.8013977,14.7818571 31.8146932,15.3874286 31.8324205,15.6522857 C31.9002273,16.2741429 32.1918409,16.6924286 32.706375,16.9067143 C32.9368295,17.007 33.2457273,17.0901429 33.6308523,17.1557143 L33.6308523,17.4042857 L27.9222273,17.4042857 L27.9222273,17.1557143 C28.4354318,17.0901429 28.7961818,16.9984286 29.0018182,16.8822857 C29.4551932,16.6007143 29.7117955,16.0868571 29.7725114,15.3411429 C29.7977727,15.1594286 29.8146136,14.6207143 29.8239205,13.7254286 L29.8239205,10.6435714 C29.8146136,9.64971429 29.7937841,9.05271429 29.7596591,8.85385714 C29.6222727,7.86 29.0567727,7.34614286 28.0631591,7.31271429 L28.0631591,7.06414286 L31.6095,6.61628571" id="Fill-4"></path>
                <path d="M52.6446818,16.1862857 L52.8631705,16.3105714 C52.5516136,17.166 51.8420795,17.5937143 50.7358977,17.5937143 C50.0352273,17.5937143 49.4772614,17.4184286 49.0624432,17.0674286 C48.8373068,16.8878571 48.6033068,16.5942857 48.3617727,16.1862857 C47.8888977,16.5865714 47.5285909,16.8677143 47.2799659,17.0305714 C46.6790114,17.4055714 45.9570682,17.5937143 45.1167955,17.5937143 C44.2233409,17.5937143 43.4934205,17.3884286 42.9265909,16.9765714 C42.3340568,16.5488571 42.0384545,15.948 42.0384545,15.1744286 C42.0384545,14.418 42.3185455,13.8012857 42.8787273,13.3238571 C43.3267841,12.9454286 44.0598068,12.633 45.0769091,12.3852857 C46.2056932,12.1144286 46.9994318,11.8504286 47.4563523,11.595 C47.8184318,11.3978571 48.0639545,11.151 48.1933636,10.8548571 C48.3050455,10.5994286 48.3617727,10.2415714 48.3617727,9.78128571 C48.3617727,8.91728571 48.2110909,8.25471429 47.9115,7.794 C47.5503068,7.24285714 47.0100682,6.96728571 46.2894545,6.96728571 C45.8170227,6.96728571 45.4265795,7.10742857 45.1176818,7.38685714 C44.9537045,7.539 44.7179318,7.94614286 44.4094773,8.60957143 C44.2379659,8.98542857 43.9246364,9.17271429 43.4699318,9.17271429 C43.1264659,9.17271429 42.8601136,9.05528571 42.6713182,8.82042857 C42.5259545,8.64171429 42.4528295,8.439 42.4528295,8.21185714 C42.4528295,7.85442857 42.6633409,7.55442857 43.0843636,7.311 C43.8492955,6.882 44.8468977,6.66642857 46.0762841,6.66642857 C46.8150682,6.66642857 47.5542955,6.78171429 48.2939659,7.011 C49.1701364,7.28185714 49.7507045,7.65085714 50.0352273,8.11757143 C50.2328864,8.43814286 50.3317159,8.99571429 50.3317159,9.79071429 L50.3317159,14.3952857 C50.3317159,15.15 50.3658409,15.6638571 50.4345341,15.9364286 C50.5803409,16.5064286 50.9308977,16.7914286 51.4879773,16.7914286 C51.8558182,16.7914286 52.1562955,16.6851429 52.3876364,16.4721429 C52.4479091,16.4142857 52.533,16.3187143 52.6446818,16.1862857 Z M48.3617727,11.2834286 C47.92125,11.6391429 47.4169091,11.9648571 46.84875,12.2618571 C46.1702386,12.6171429 45.7257273,12.8734286 45.5143295,13.0298571 C44.7174886,13.6165714 44.3190682,14.3597143 44.3190682,15.2597143 C44.3190682,15.7971429 44.4631023,16.2338571 44.7516136,16.5724286 C45.0729205,16.953 45.4713409,17.1424286 45.9459886,17.1424286 C46.5305455,17.1424286 47.0441932,16.92 47.4847159,16.4751429 C48.0697159,15.891 48.3617727,14.853 48.3617727,13.362 L48.3617727,11.2834286 L48.3617727,11.2834286 Z" id="Fill-5"></path>
                <path d="M62.2156364,17.799 C62.1190227,17.3854286 62.0755909,16.9547143 62.0844545,16.5064286 C60.903375,17.2371429 59.7063409,17.6022857 58.4933523,17.6022857 C57.0304091,17.6022857 55.8196364,17.1402857 54.8623636,16.2158571 C53.8363977,15.2258571 53.3236364,13.9225714 53.3236364,12.3055714 C53.3236364,10.5981429 53.8660909,9.21257143 54.9523295,8.14757143 C55.9614545,7.16614286 57.2267386,6.675 58.748625,6.675 C59.645625,6.675 60.445125,6.88114286 61.1466818,7.29128571 C61.3771364,7.42157143 61.6722955,7.62685714 62.0317159,7.90842857 L62.0317159,3.34328571 C62.0317159,2.24142857 61.7830909,1.49571429 61.2867273,1.10571429 C60.9951136,0.907714286 60.5794091,0.804 60.0400568,0.795428571 L60.0400568,0.484714286 L64.0012159,0 L64.0012159,14.3824286 C64.0091932,15.1367143 64.0911818,15.6707143 64.2449659,15.9857143 C64.4678864,16.4918571 64.8233182,16.8017143 65.3117045,16.9178571 C65.4916364,16.9504286 65.7185455,16.9718571 65.992875,16.9795714 L65.992875,17.2907143 L62.2156364,17.799 Z M59.1736364,6.97585714 C58.1999659,6.97585714 57.3698864,7.47171429 56.6838409,8.46171429 C55.9641136,9.49371429 55.60425,10.707 55.60425,12.1011429 C55.60425,13.4378571 55.9339773,14.6262857 56.5947614,15.666 C57.2466818,16.6898571 58.0891705,17.2011429 59.1226705,17.2011429 C59.6221364,17.2011429 60.0905795,17.0657143 60.5262273,16.7931429 C60.961875,16.5205714 61.2858409,16.1571429 61.498125,15.7028571 C61.7432045,15.2078571 61.8916705,14.6721429 61.9426364,14.0944286 C62.0015795,13.5008571 62.0317159,12.8357143 62.0317159,12.1011429 C62.0317159,10.7477143 61.9767614,9.81557143 61.8664091,9.30342857 C61.6802727,8.45357143 61.3026818,7.83514286 60.7358523,7.44642857 C60.2700682,7.13314286 59.7493295,6.97585714 59.1736364,6.97585714 L59.1736364,6.97585714 Z" id="Fill-6"></path>
                <path d="M77.6693864,16.1862857 L77.8883182,16.3105714 C77.5763182,17.166 76.8667841,17.5937143 75.7606023,17.5937143 C75.0599318,17.5937143 74.5019659,17.4184286 74.0875909,17.0674286 C73.8620114,16.8878571 73.6280114,16.5942857 73.3869205,16.1862857 C72.9136023,16.5865714 72.5532955,16.8677143 72.3046705,17.0305714 C71.7037159,17.4055714 70.9822159,17.5937143 70.1415,17.5937143 C69.2484886,17.5937143 68.5185682,17.3884286 67.9517386,16.9765714 C67.3587614,16.5488571 67.0631591,15.948 67.0631591,15.1744286 C67.0631591,14.418 67.34325,13.8012857 67.903875,13.3238571 C68.3514886,12.9454286 69.0845114,12.633 70.1016136,12.3852857 C71.2308409,12.1144286 72.0245795,11.8504286 72.4810568,11.595 C72.8431364,11.3978571 73.0886591,11.151 73.2185114,10.8548571 C73.3301932,10.5994286 73.3869205,10.2415714 73.3869205,9.78128571 C73.3869205,8.91728571 73.2362386,8.25471429 72.9366477,7.794 C72.5754545,7.24285714 72.0352159,6.96728571 71.3141591,6.96728571 C70.8421705,6.96728571 70.4517273,7.10742857 70.1423864,7.38685714 C69.9788523,7.539 69.7430795,7.94614286 69.434625,8.60957143 C69.2626705,8.98542857 68.9493409,9.17271429 68.4950795,9.17271429 C68.1516136,9.17271429 67.8852614,9.05528571 67.6964659,8.82042857 C67.5506591,8.64171429 67.4779773,8.439 67.4779773,8.21185714 C67.4779773,7.85442857 67.6884886,7.55442857 68.1095114,7.311 C68.874,6.882 69.8716023,6.66642857 71.1014318,6.66642857 C71.8397727,6.66642857 72.5794432,6.78171429 73.3186705,7.011 C74.1952841,7.28185714 74.7758523,7.65085714 75.0599318,8.11757143 C75.2575909,8.43814286 75.3564205,8.99571429 75.3564205,9.79071429 L75.3564205,14.3952857 C75.3564205,15.15 75.3905455,15.6638571 75.4592386,15.9364286 C75.6050455,16.5064286 75.9560455,16.7914286 76.513125,16.7914286 C76.8805227,16.7914286 77.181,16.6851429 77.4127841,16.4721429 C77.4726136,16.4142857 77.5577045,16.3187143 77.6693864,16.1862857 Z M73.3869205,11.2834286 C72.9463977,11.6391429 72.4416136,11.9648571 71.8738977,12.2618571 C71.1953864,12.6171429 70.7504318,12.8734286 70.5390341,13.0298571 C69.7421932,13.6165714 69.3437727,14.3597143 69.3437727,15.2597143 C69.3437727,15.7971429 69.4878068,16.2338571 69.7763182,16.5724286 C70.097625,16.953 70.4960455,17.1424286 70.9706932,17.1424286 C71.5556932,17.1424286 72.0688977,16.92 72.5098636,16.4751429 C73.0944205,15.891 73.3869205,14.853 73.3869205,13.362 L73.3869205,11.2834286 L73.3869205,11.2834286 Z" id="Fill-7"></path>
                <polygon id="Fill-8" points="65.5563409 5.41671429 68.2265114 5.41671429 68.2265114 0.00342857143 65.5563409 0.00342857143"></polygon>
                <polygon id="Fill-9" points="74.6734773 5.41671429 77.3347841 5.41671429 77.3347841 0.00342857143 74.6734773 0.00342857143"></polygon>
                <polyline id="Fill-10" points="71.4200795 5.17928571 71.1949432 5.17928571 71.1949432 4.13957143 69.9881591 4.24842857 70.2132955 3.83228571 68.9028068 2.90314286 69.2507045 2.71457143 68.9134432 1.82571429 69.6300682 1.99371429 69.8950909 1.63714286 70.8067159 2.51742857 70.3254205 0.825428571 70.8984545 1.14128571 71.4200795 0.231 71.9417045 1.14128571 72.5249318 0.825428571 72.033 2.51742857 72.9539318 1.63714286 73.2207273 1.99371429 73.9267159 1.82571429 73.5894545 2.71457143 73.9475455 2.90314286 72.6268636 3.83228571 72.8621932 4.24842857 71.6536364 4.13957143 71.6536364 5.17928571 71.4200795 5.17928571"></polyline>
            </g>
        </g>
    </g>
</svg>